<?xml version="1.0" standalone="no"?>
<!DOCTYPE svg PUBLIC "-//W3C//DTD SVG 20010904//EN"
 "http://www.w3.org/TR/2001/REC-SVG-20010904/DTD/svg10.dtd">
<svg version="1.0" xmlns="http://www.w3.org/2000/svg"
 width="1220.000000pt" height="484.000000pt" viewBox="0 0 1220.000000 484.000000"
 preserveAspectRatio="xMidYMid meet">

<g transform="translate(0.000000,484.000000) scale(0.100000,-0.100000)"
fill="#000000" stroke="none">
<path d="M2662 4040 c-325 -46 -603 -211 -771 -458 -139 -206 -239 -516 -272
-852 -17 -164 -17 -542 -1 -645 47 -294 153 -489 333 -610 86 -59 174 -95 309
-127 85 -20 121 -23 335 -23 268 0 380 16 553 76 299 106 461 253 563 513 18
46 28 62 29 46 0 -29 -47 -506 -56 -562 l-6 -38 339 0 338 0 59 593 c32 325
62 606 67 624 14 43 78 99 158 137 54 25 81 32 151 34 96 4 219 -22 300 -63
l48 -24 -23 -88 c-57 -220 -86 -508 -67 -674 23 -204 68 -316 172 -419 101
-101 225 -149 385 -150 179 0 376 101 466 240 l32 49 36 -71 c42 -85 108 -144
198 -178 81 -32 270 -39 363 -15 131 34 271 113 382 214 l56 51 13 -32 c22
-53 125 -154 190 -187 97 -48 191 -64 338 -58 275 12 466 92 642 266 96 96
146 166 209 291 41 82 130 332 130 368 0 37 12 40 85 25 38 -8 70 -15 71 -16
1 -1 -2 -51 -7 -112 -22 -273 38 -481 181 -626 158 -160 381 -232 715 -233
116 0 183 5 245 18 167 36 355 116 496 212 73 50 284 223 284 233 0 8 -227
211 -236 211 -4 0 -48 -24 -98 -54 -152 -90 -284 -138 -451 -161 -131 -19
-196 -19 -266 1 -106 30 -171 107 -190 227 -15 92 -9 104 53 112 203 27 451
101 628 187 86 43 118 66 181 128 85 84 99 117 99 221 -1 159 -58 324 -137
401 -123 119 -353 179 -628 165 -343 -19 -572 -164 -733 -467 l-40 -75 -61 3
c-34 2 -74 7 -89 11 l-27 7 0 155 c0 148 -1 156 -29 217 -32 70 -86 124 -155
156 -36 16 -65 21 -136 21 -81 0 -95 -3 -144 -30 -29 -16 -70 -49 -91 -73
-131 -149 -76 -421 125 -611 l54 -51 -25 -84 c-96 -332 -268 -546 -439 -546
-27 0 -61 6 -75 13 -36 18 -60 73 -60 137 0 30 28 319 62 642 34 323 59 590
57 593 -3 2 -156 -3 -339 -13 l-335 -17 -57 -535 c-31 -294 -57 -559 -58 -588
0 -71 -18 -109 -74 -160 -59 -54 -118 -81 -176 -82 -72 0 -110 38 -124 125 -4
24 17 273 54 639 33 329 59 600 58 601 -2 2 -124 8 -273 14 -148 6 -298 14
-332 17 l-61 5 -7 -85 c-4 -47 -9 -86 -11 -86 -2 0 -25 14 -51 30 -113 72
-276 116 -391 106 -189 -17 -318 -97 -439 -271 -26 -36 -34 -43 -30 -25 3 14
9 63 13 110 l6 86 -42 38 c-98 88 -231 117 -355 77 -126 -41 -181 -74 -279
-169 l-59 -57 7 85 c4 47 9 100 13 118 l5 32 -108 0 c-173 -1 -554 -17 -561
-23 -3 -4 -27 -217 -54 -474 -26 -257 -48 -469 -48 -471 -1 -1 -112 0 -248 4
l-248 6 -24 -57 c-84 -199 -231 -325 -413 -355 -219 -37 -368 79 -440 342 -20
74 -23 105 -23 283 1 222 11 293 70 510 66 242 148 407 255 515 37 37 86 76
114 89 65 30 158 31 215 1 23 -11 41 -22 41 -24 0 -2 -15 -35 -32 -72 -30 -63
-33 -77 -33 -164 0 -86 3 -101 31 -160 117 -243 436 -299 624 -110 75 74 104
143 108 258 7 160 -38 304 -134 431 -99 131 -256 222 -474 273 -97 22 -391 33
-498 18z m7166 -1244 c10 -14 25 -51 32 -84 12 -57 11 -61 -16 -116 -51 -105
-195 -212 -300 -224 l-45 -5 6 29 c42 185 101 320 171 383 37 35 50 41 88 41
35 0 49 -5 64 -24z m-3785 -45 c13 -5 31 -21 41 -36 17 -25 16 -41 -15 -368
-35 -373 -42 -405 -101 -450 -42 -32 -140 -60 -171 -48 -78 30 -108 157 -87
376 13 151 40 266 81 350 70 142 165 209 252 176z"/>
</g>
</svg>
